<?xml version="1.0" encoding="UTF-8" standalone="no"?>
<!-- Created with Inkscape (http://www.inkscape.org/) -->

<svg
   width="300"
   height="300"
   viewBox="0 0 300 300"
   version="1.1"
   id="svg1"
   sodipodi:docname="almacen2.svg"
   inkscape:version="1.3.2 (091e20e, 2023-11-25)"
   xmlns:inkscape="http://www.inkscape.org/namespaces/inkscape"
   xmlns:sodipodi="http://sodipodi.sourceforge.net/DTD/sodipodi-0.dtd"
   xmlns="http://www.w3.org/2000/svg"
   xmlns:svg="http://www.w3.org/2000/svg">
  <sodipodi:namedview
     id="namedview1"
     pagecolor="#ffffff"
     bordercolor="#000000"
     borderopacity="0.25"
     inkscape:showpageshadow="2"
     inkscape:pageopacity="0.0"
     inkscape:pagecheckerboard="0"
     inkscape:deskcolor="#d1d1d1"
     inkscape:document-units="px"
     showgrid="true"
     inkscape:zoom="2.2514877"
     inkscape:cx="143.01655"
     inkscape:cy="247.83613"
     inkscape:window-width="1312"
     inkscape:window-height="449"
     inkscape:window-x="20"
     inkscape:window-y="25"
     inkscape:window-maximized="0"
     inkscape:current-layer="svg1"
     showguides="true">
    <inkscape:grid
       id="grid1"
       units="px"
       originx="0"
       originy="0"
       spacingx="1"
       spacingy="1"
       empcolor="#0099e5"
       empopacity="0.30196078"
       color="#0099e5"
       opacity="0.14901961"
       empspacing="5"
       dotted="false"
       gridanglex="30"
       gridanglez="30"
       visible="true" />
  </sodipodi:namedview>
  <defs
     id="defs1" />
  <path
     id="rect1-9-7"
     style="fill:#008080;stroke-width:0.964576"
     d="M 51.034435,21.091814 V 266.4297 h 22.47151 V 21.091814 Z m 13.3855,120.716786 h 1.40288 v 5.61914 h 1.30112 v 1.18555 h -4.21409 v -1.18555 h 1.33201 v -3.58593 h -1.33201 v -1.10742 c 0.20352,0 0.39857,-0.0128 0.58514,-0.0371 0.18656,-0.0273 0.34264,-0.0729 0.46702,-0.13672 0.14699,-0.076 0.25723,-0.17535 0.33073,-0.29688 0.0735,-0.12152 0.11589,-0.27278 0.1272,-0.45508 z m -6.94534,0.0176 h 1.87353 l 2.33147,6.78711 h -1.68273 l -0.43612,-1.37305 h -2.34056 l -0.43794,1.37305 h -1.64094 z m 0.91587,1.73633 -0.77595,2.43359 h 1.55189 z"
     name="A1"
     elementType="2" />
  <path
     id="rect1-7-1"
     d="M 75.557216,21.464844 V 266.80469 H 98.869141 V 21.464844 Z M 92.097636,142.0332 c 0.821091,0 1.446549,0.18056 1.877621,0.53907 0.431074,0.35547 0.646612,0.85851 0.646612,1.51171 0,0.42839 -0.104732,0.83681 -0.312938,1.22266 -0.205272,0.38585 -0.519258,0.7832 -0.944466,1.19336 -0.266855,0.25521 -0.535178,0.49132 -0.804965,0.70703 -0.269787,0.21267 -0.462494,0.36025 -0.57686,0.44531 h 2.94274 v 1.29883 h -5.142725 v -1.12109 c 0.392952,-0.29471 0.787161,-0.60634 1.180112,-0.9375 0.395885,-0.33116 0.712592,-0.6174 0.950122,-0.85742 0.354829,-0.35547 0.606395,-0.66537 0.75595,-0.92969 0.149557,-0.26433 0.224335,-0.52496 0.224335,-0.7832 0,-0.3099 -0.09677,-0.5497 -0.290315,-0.7168 -0.19061,-0.17014 -0.466892,-0.25391 -0.827587,-0.25391 -0.269787,0 -0.552981,0.0564 -0.852093,0.17188 -0.296179,0.11544 -0.572461,0.2641 -0.827587,0.44336 h -0.141387 v -1.50977 c 0.208206,-0.0942 0.515278,-0.18706 0.91996,-0.28125 0.407613,-0.0942 0.815857,-0.14258 1.223471,-0.14258 z m -7.597207,0.13282 h 1.943603 l 2.420549,6.78515 h -1.747547 l -0.452439,-1.37109 h -2.42809 l -0.452439,1.37109 h -1.702302 z m 0.950122,1.73632 -0.804965,2.4336 h 1.609929 z"
     name="A2"
     elementType="2"
     style="fill:#800080;stroke-width:0.982448" />
  <path
     id="rect1-9-4"
     style="fill:#008080;stroke-width:0.964576"
     d="M 140.66016,20.929688 V 266.26758 h 22.4715 V 20.929688 Z m 12.40057,121.064452 h 1.4047 v 5.61914 h 1.30111 v 1.18555 h -4.21408 v -1.18555 h 1.33019 v -3.58594 h -1.33019 v -1.10742 c 0.20352,0 0.39857,-0.0128 0.58513,-0.0371 0.18657,-0.0273 0.34083,-0.0729 0.46521,-0.13672 0.14699,-0.076 0.25724,-0.17534 0.33073,-0.29687 0.0735,-0.12153 0.1159,-0.27279 0.1272,-0.45508 z m -8.44634,0.0176 h 2.4514 c 0.50881,0 0.88114,0.0182 1.11576,0.0547 0.23745,0.0365 0.47147,0.11762 0.70326,0.24218 0.24028,0.13064 0.41836,0.30751 0.53426,0.5293 0.11873,0.21875 0.17809,0.4694 0.17808,0.75195 0,0.32813 -0.0806,0.61698 -0.24169,0.86914 -0.16112,0.24914 -0.38928,0.44424 -0.68327,0.58399 v 0.0371 c 0.41271,0.0881 0.7392,0.27039 0.97948,0.54687 0.2431,0.27648 0.36526,0.64106 0.36526,1.09375 0,0.32812 -0.0628,0.62066 -0.18718,0.87891 -0.12154,0.25825 -0.28852,0.47244 -0.50336,0.64258 -0.24876,0.20052 -0.52356,0.34266 -0.8232,0.42773 -0.29681,0.0851 -0.67418,0.12891 -1.13211,0.12891 h -2.75669 z m 1.62094,1.24414 v 1.43555 h 0.25441 c 0.25723,0 0.4751,-0.005 0.65601,-0.0137 0.18091,-0.009 0.32426,-0.0382 0.42886,-0.0898 0.14698,-0.0699 0.2437,-0.16016 0.28893,-0.26953 0.0452,-0.11241 0.0672,-0.24089 0.0672,-0.38672 0,-0.11241 -0.0262,-0.22548 -0.08,-0.33789 -0.0509,-0.11241 -0.14333,-0.19531 -0.27621,-0.25 -0.11872,-0.0486 -0.26713,-0.0751 -0.44522,-0.0781 -0.17526,-0.006 -0.42199,-0.01 -0.74141,-0.01 z m 0,2.60742 v 1.68945 h 0.11812 c 0.45793,0 0.78523,-5.7e-4 0.9831,-0.004 0.19787,-0.003 0.3802,-0.0435 0.54698,-0.11914 0.16961,-0.076 0.28672,-0.17622 0.3489,-0.30078 0.0648,-0.12708 0.0961,-0.2723 0.0963,-0.43555 -2.5e-4,-0.2147 -0.0392,-0.38296 -0.11811,-0.49805 -0.0763,-0.11849 -0.20777,-0.20595 -0.39434,-0.26367 -0.1272,-0.0395 -0.30185,-0.0614 -0.52517,-0.0644 -0.2233,-0.003 -0.45652,-0.004 -0.69962,-0.004 z"
     name="B1"
     elementType="2" />
  <path
     id="rect1-7-1-7"
     style="fill:#800080;stroke-width:0.964576"
     d="M 166.39373,21.115234 V 266.45508 h 22.4715 V 21.115234 Z m 15.50435,121.033206 c 0.7915,0 1.3944,0.1786 1.80994,0.53711 0.41553,0.35546 0.6233,0.86046 0.6233,1.51367 0,0.42838 -0.10096,0.83485 -0.30166,1.2207 -0.19787,0.38585 -0.50054,0.78321 -0.91042,1.19336 -0.25723,0.25521 -0.51588,0.49132 -0.77594,0.70703 -0.26006,0.21268 -0.44581,0.3622 -0.55607,0.44727 h 2.83666 v 1.29883 h -4.95732 v -1.1211 c 0.37878,-0.2947 0.75877,-0.60829 1.13756,-0.93945 0.38161,-0.33117 0.6869,-0.61741 0.91587,-0.85742 0.34204,-0.35548 0.58453,-0.66537 0.7287,-0.92969 0.14416,-0.26432 0.21624,-0.52496 0.21624,-0.7832 0,-0.3099 -0.0933,-0.54775 -0.27984,-0.71485 -0.18374,-0.17014 -0.45006,-0.25586 -0.79775,-0.25586 -0.26006,0 -0.53305,0.0584 -0.82138,0.17383 -0.2855,0.11546 -0.55183,0.26215 -0.79776,0.44141 h -0.13628 v -1.50781 c 0.2007,-0.0942 0.4967,-0.18902 0.8868,-0.28321 0.39291,-0.0942 0.78644,-0.14062 1.17935,-0.14062 z m -8.82432,0.13086 h 2.4514 c 0.50882,0 0.87933,0.0182 1.11395,0.0547 0.23745,0.0365 0.47328,0.11763 0.70507,0.24219 0.24028,0.13064 0.41836,0.30751 0.53426,0.5293 0.11873,0.21875 0.17809,0.4694 0.17809,0.75195 0,0.32813 -0.0806,0.61698 -0.2417,0.86914 -0.16111,0.24914 -0.38928,0.44423 -0.68326,0.58399 v 0.0371 c 0.4127,0.0881 0.73919,0.27039 0.97947,0.54687 0.2431,0.27647 0.36526,0.64106 0.36526,1.09375 0,0.32813 -0.0628,0.62067 -0.18717,0.87891 -0.12156,0.25824 -0.29035,0.47244 -0.50519,0.64258 -0.24875,0.20052 -0.52174,0.34266 -0.82137,0.42773 -0.29682,0.0851 -0.67419,0.12891 -1.13212,0.12891 h -2.75669 z m 1.61912,1.24414 v 1.43554 h 0.25441 c 0.25724,0 0.47692,-0.005 0.65783,-0.0137 0.18092,-0.009 0.32427,-0.0382 0.42886,-0.0898 0.14699,-0.0699 0.24189,-0.16016 0.28711,-0.26953 0.0452,-0.11242 0.0691,-0.24089 0.0691,-0.38672 0,-0.11241 -0.0281,-0.22548 -0.0818,-0.33789 -0.0509,-0.11242 -0.14153,-0.19532 -0.2744,-0.25 -0.11873,-0.0486 -0.26713,-0.0751 -0.44522,-0.0781 -0.17525,-0.006 -0.42381,-0.01 -0.74323,-0.01 z m 0,2.60742 v 1.69141 h 0.11994 c 0.45793,0 0.78524,-0.003 0.98311,-0.006 0.19787,-0.003 0.3802,-0.0435 0.54697,-0.11914 0.16961,-0.076 0.2849,-0.17622 0.34709,-0.30079 0.0648,-0.12708 0.0979,-0.27228 0.0981,-0.43554 -2.6e-4,-0.2147 -0.0392,-0.38297 -0.11812,-0.49805 -0.0763,-0.11849 -0.20777,-0.20594 -0.39434,-0.26367 -0.1272,-0.0395 -0.30366,-0.0615 -0.52698,-0.0644 -0.22331,-0.003 -0.45652,-0.004 -0.69963,-0.004 z"
     name="B2"
     elementType="2" />
  <path
     id="rect1-9-46"
     style="fill:#008080;stroke-width:0.964576"
     d="M 228.85938,20.505859 V 265.84375 h 22.4715 V 20.505859 Z m 7.41417,122.107421 c 0.26572,0 0.50397,0.0174 0.71599,0.0508 0.21483,0.0304 0.4133,0.0714 0.59422,0.12305 0.18938,0.0577 0.3598,0.12241 0.51245,0.19531 0.15547,0.0699 0.29115,0.13651 0.40705,0.19727 v 1.64453 h -0.18535 c -0.0791,-0.0729 -0.18011,-0.15951 -0.30166,-0.25977 -0.11872,-0.10026 -0.25441,-0.19965 -0.40705,-0.29687 -0.15548,-0.0972 -0.32427,-0.17926 -0.50519,-0.2461 -0.18091,-0.0668 -0.37332,-0.0996 -0.57968,-0.0996 -0.22897,0 -0.44784,0.0401 -0.65419,0.11914 -0.20636,0.076 -0.39717,0.20355 -0.57242,0.38281 -0.16678,0.17318 -0.30246,0.40191 -0.40705,0.6875 -0.10177,0.28558 -0.15265,0.63194 -0.15265,1.03906 0,0.42535 0.0551,0.78082 0.16537,1.06641 0.11307,0.28559 0.25562,0.50977 0.42522,0.67382 0.17243,0.1671 0.36404,0.28841 0.57605,0.36133 0.21201,0.0699 0.42058,0.10352 0.62694,0.10352 0.19787,0 0.39292,-0.0319 0.58514,-0.0957 0.19504,-0.0638 0.37575,-0.1504 0.5397,-0.25977 0.13852,-0.0881 0.26654,-0.18099 0.38526,-0.28125 0.11872,-0.10026 0.21624,-0.18685 0.29256,-0.25977 h 0.169 v 1.6211 c -0.1583,0.0759 -0.30832,0.148 -0.45248,0.21484 -0.14417,0.0668 -0.296,0.12522 -0.4543,0.17383 -0.20636,0.0638 -0.40059,0.11111 -0.58151,0.14453 -0.18091,0.0334 -0.42846,0.0508 -0.74505,0.0508 -0.46924,0 -0.90436,-0.0738 -1.30293,-0.22265 -0.39575,-0.14888 -0.73577,-0.37132 -1.02127,-0.66602 -0.2855,-0.29471 -0.50679,-0.66298 -0.66509,-1.10351 -0.15547,-0.44054 -0.23443,-0.94814 -0.23442,-1.5254 -1e-5,-0.53776 0.0755,-1.02539 0.22533,-1.46289 0.14982,-0.4375 0.36687,-0.81402 0.65237,-1.12695 0.2742,-0.30078 0.61341,-0.5332 1.01763,-0.69726 0.40706,-0.16406 0.85146,-0.2461 1.33201,-0.2461 z m 5.25717,0.11524 h 1.40469 v 5.61914 h 1.30112 v 1.18359 h -4.21409 v -1.18359 h 1.33019 v -3.58789 h -1.33019 v -1.10743 c 0.20353,0 0.39858,-0.0108 0.58514,-0.0352 0.18657,-0.0273 0.34083,-0.0729 0.4652,-0.13672 0.14699,-0.076 0.25724,-0.17535 0.33074,-0.29688 0.0735,-0.12152 0.11589,-0.27278 0.1272,-0.45507 z"
     name="C1"
     elementType="2" />
  <path
     id="rect1-7-1-0"
     style="fill:#800080;stroke-width:0.973553"
     d="M 254.17274,20.691406 V 266.03125 h 22.89171 V 20.691406 Z m 10.3296,122.189454 c 0.27067,0 0.51338,0.0174 0.72936,0.0508 0.21885,0.0304 0.42103,0.0714 0.60533,0.12305 0.19294,0.0577 0.36654,0.1224 0.52204,0.19531 0.15838,0.0699 0.29659,0.1365 0.41466,0.19727 v 1.64453 h -0.19067 c -0.0806,-0.0729 -0.18162,-0.15951 -0.30545,-0.25977 -0.12094,-0.10026 -0.25916,-0.19965 -0.41466,-0.29687 -0.15838,-0.0972 -0.33034,-0.17926 -0.51463,-0.2461 -0.18429,-0.0668 -0.38217,-0.0996 -0.59238,-0.0996 -0.23325,0 -0.45435,0.0402 -0.66457,0.11914 -0.21021,0.076 -0.40458,0.20356 -0.58312,0.38282 -0.1699,0.17317 -0.30812,0.4019 -0.41467,0.6875 -0.10366,0.28558 -0.15549,0.63194 -0.15549,1.03906 0,0.42534 0.0562,0.78082 0.16845,1.06641 0.11519,0.28559 0.25855,0.50976 0.43133,0.67382 0.17565,0.1671 0.3727,0.28841 0.58867,0.36133 0.21598,0.0699 0.42845,0.10352 0.63866,0.10352 0.20157,0 0.40027,-0.0319 0.59608,-0.0957 0.19869,-0.0638 0.38094,-0.15039 0.54795,-0.25976 0.14111,-0.0881 0.27336,-0.18099 0.3943,-0.28125 0.12094,-0.10026 0.22029,-0.18685 0.29804,-0.25977 h 0.17216 v 1.6211 c -0.16126,0.076 -0.31593,0.148 -0.46279,0.21484 -0.14687,0.0668 -0.29969,0.12521 -0.46095,0.17383 -0.2102,0.0638 -0.40808,0.11111 -0.59238,0.14453 -0.18429,0.0334 -0.43831,0.0508 -0.76083,0.0508 -0.47801,0 -0.91942,-0.0738 -1.32545,-0.22266 -0.40315,-0.14887 -0.74952,-0.37131 -1.04037,-0.66601 -0.29083,-0.29471 -0.51811,-0.66298 -0.67937,-1.10352 -0.15838,-0.44053 -0.23695,-0.94813 -0.23695,-1.52539 0,-0.53776 0.0769,-1.02539 0.22954,-1.46289 0.15261,-0.4375 0.37373,-0.81402 0.66458,-1.12695 0.27932,-0.30078 0.62488,-0.53321 1.03666,-0.69727 0.41466,-0.16406 0.86737,-0.24609 1.35692,-0.24609 z m 5.74051,0 c 0.80629,0 1.42048,0.18056 1.84377,0.53906 0.4233,0.35547 0.63496,0.85851 0.63496,1.51172 0,0.42839 -0.10284,0.8368 -0.3073,1.22266 -0.20157,0.38584 -0.5099,0.7832 -0.92744,1.19336 -0.26204,0.2552 -0.52553,0.49131 -0.79046,0.70703 -0.26492,0.21267 -0.45416,0.36024 -0.56645,0.44531 h 2.8897 v 1.29883 h -5.05003 v -1.1211 c 0.38587,-0.2947 0.77297,-0.60633 1.15884,-0.9375 0.38875,-0.33116 0.69975,-0.6174 0.93299,-0.85742 0.34843,-0.35546 0.59547,-0.66537 0.74232,-0.92969 0.14687,-0.26432 0.2203,-0.52495 0.2203,-0.7832 0,-0.30989 -0.095,-0.5497 -0.28509,-0.7168 -0.18716,-0.17013 -0.45847,-0.2539 -0.81267,-0.2539 -0.26492,0 -0.54301,0.0564 -0.83673,0.17187 -0.29084,0.11545 -0.56214,0.26411 -0.81267,0.44336 h -0.13884 v -1.50976 c 0.20445,-0.0942 0.50599,-0.18707 0.90338,-0.28125 0.40027,-0.0942 0.80114,-0.14258 1.20142,-0.14258 z"
     name="C2"
     elementType="2" />
  <path
     id="rect3"
     style="fill:#808000"
     inkscape:label="rect3"
     d="M 50.332031 21.101562 L 50.332031 267.4082 L 99.806641 267.4082 L 99.806641 21.101562 L 50.332031 21.101562 z M 72.939453 116.33398 L 77.544922 116.33398 L 83.273438 131.8457 L 79.138672 131.8457 L 78.064453 128.70898 L 72.314453 128.70898 L 71.242188 131.8457 L 67.210938 131.8457 L 72.939453 116.33398 z M 75.189453 120.30273 L 73.283203 125.86523 L 77.095703 125.86523 L 75.189453 120.30273 z "
     name="A"
     elementType="1" />
  <path
     id="rect3-1"
     style="fill:#808000"
     inkscape:label="rect3"
     d="M 140.32812 20.751953 L 140.32812 267.05859 L 189.80273 267.05859 L 189.80273 20.751953 L 140.32812 20.751953 z M 159.22461 116.75 L 165.24414 116.75 C 166.49414 116.75 167.40799 116.79167 167.98438 116.875 C 168.56771 116.95833 169.14344 117.14301 169.71289 117.42773 C 170.30316 117.72635 170.74067 118.12783 171.02539 118.63477 C 171.31706 119.13477 171.46289 119.70768 171.46289 120.35352 C 171.46289 121.10351 171.26497 121.76736 170.86914 122.34375 C 170.47331 122.9132 169.91558 123.35829 169.19336 123.67773 L 169.19336 123.75977 C 170.20725 123.96116 171.00933 124.37783 171.59961 125.00977 C 172.19683 125.64171 172.49414 126.47505 172.49414 127.50977 C 172.49414 128.25976 172.34266 128.93121 172.03711 129.52148 C 171.7385 130.11176 171.32465 130.60135 170.79688 130.99023 C 170.18576 131.44857 169.5115 131.77431 168.77539 131.96875 C 168.04622 132.1632 167.11914 132.25977 165.99414 132.25977 L 159.22461 132.25977 L 159.22461 116.75 z M 163.20312 119.59375 L 163.20312 122.875 L 163.82812 122.875 C 164.46006 122.875 164.99891 122.86455 165.44336 122.84375 C 165.8878 122.82295 166.23719 122.75481 166.49414 122.63672 C 166.85525 122.47699 167.09202 122.27148 167.20312 122.02148 C 167.31424 121.76454 167.36914 121.47005 167.36914 121.13672 L 167.36914 121.13477 C 167.36914 120.87782 167.30382 120.62217 167.17188 120.36523 C 167.04688 120.10829 166.82053 119.91602 166.49414 119.79102 C 166.20247 119.6799 165.83789 119.62217 165.40039 119.61523 C 164.96984 119.60137 164.36284 119.59375 163.57812 119.59375 L 163.20312 119.59375 z M 163.20312 125.55273 L 163.20312 129.41602 L 163.49414 129.41602 C 164.61913 129.41602 165.426 129.41318 165.91211 129.40625 C 166.39822 129.39932 166.84613 129.30839 167.25586 129.13477 C 167.67253 128.96115 167.9566 128.73199 168.10938 128.44727 C 168.26909 128.1556 168.34961 127.82227 168.34961 127.44727 C 168.34961 126.95421 168.25108 126.57639 168.05664 126.3125 C 167.86914 126.04167 167.54622 125.84092 167.08789 125.70898 C 166.77539 125.6187 166.34548 125.56945 165.79688 125.5625 C 165.24826 125.55557 164.67534 125.55273 164.07812 125.55273 L 163.20312 125.55273 z "
     name="B"
     elementType="1" />
  <path
     id="rect3-8"
     style="fill:#808000"
     inkscape:label="rect3"
     d="M 228.52734 20.328125 L 228.52734 266.63477 L 278.00195 266.63477 L 278.00195 20.328125 L 228.52734 20.328125 z M 252.34766 117.69727 C 253.00044 117.69727 253.5866 117.73611 254.10742 117.8125 C 254.6352 117.88195 255.12196 117.9757 255.56641 118.09375 C 256.03168 118.2257 256.45117 118.37436 256.82617 118.54102 C 257.20812 118.70074 257.54145 118.85135 257.82617 118.99023 L 257.82617 122.75 L 257.36719 122.75 C 257.17274 122.58333 256.92752 122.38542 256.62891 122.15625 C 256.33724 121.92708 256.0039 121.70074 255.62891 121.47852 C 255.24696 121.2563 254.83312 121.0688 254.38867 120.91602 C 253.94423 120.76324 253.46788 120.6875 252.96094 120.6875 C 252.39844 120.6875 251.86436 120.77842 251.35742 120.95898 C 250.85048 121.13259 250.38172 121.42426 249.95117 121.83398 C 249.54145 122.22982 249.20812 122.75348 248.95117 123.40625 C 248.70117 124.05903 248.57617 124.8507 248.57617 125.78125 C 248.57617 126.75347 248.71159 127.56598 248.98242 128.21875 C 249.2602 128.87153 249.60677 129.38477 250.02344 129.75977 C 250.44704 130.14171 250.92057 130.41732 251.44141 130.58398 C 251.96224 130.74371 252.47548 130.82227 252.98242 130.82227 C 253.46853 130.82227 253.9477 130.74935 254.41992 130.60352 C 254.89909 130.45768 255.33941 130.25977 255.74219 130.00977 C 256.08246 129.80837 256.39974 129.5944 256.69141 129.36523 C 256.98307 129.13607 257.22266 128.93814 257.41016 128.77148 L 257.82617 128.77148 L 257.82617 132.47852 C 257.43729 132.65213 257.0651 132.81597 256.71094 132.96875 C 256.35677 133.12152 255.98654 133.25412 255.59766 133.36523 C 255.09071 133.51107 254.61437 133.62088 254.16992 133.69727 C 253.72548 133.77365 253.11372 133.8125 252.33594 133.8125 C 251.18317 133.8125 250.11784 133.64301 249.13867 133.30273 C 248.16645 132.96245 247.33029 132.45486 246.62891 131.78125 C 245.92752 131.10764 245.38107 130.2667 244.99219 129.25977 C 244.61024 128.25282 244.41992 127.09092 244.41992 125.77148 C 244.41992 124.54232 244.6046 123.42773 244.97266 122.42773 C 245.34071 121.42774 245.87478 120.56879 246.57617 119.85352 C 247.24978 119.16602 248.08312 118.63476 249.07617 118.25977 C 250.07617 117.88477 251.1671 117.69727 252.34766 117.69727 z "
     name="C"
     elementType="1" />
  <path
     id="rect4"
     style="fill:#000080"
     d="m 17.180834,291.0004 h 36.509273 v 8.59041 H 17.180834 Z"
     name="puerta"
     elementType="3" />
</svg>
