<?xml version="1.0" encoding="UTF-8" standalone="no"?>
<!-- Created with Inkscape (http://www.inkscape.org/) -->

<svg
   width="300"
   height="300"
   viewBox="0 0 300 300"
   version="1.1"
   id="svg1"
   inkscape:version="1.3.2 (091e20e, 2023-11-25)"
   sodipodi:docname="estante.svg"
   xmlns:inkscape="http://www.inkscape.org/namespaces/inkscape"
   xmlns:sodipodi="http://sodipodi.sourceforge.net/DTD/sodipodi-0.dtd"
   xmlns="http://www.w3.org/2000/svg"
   xmlns:svg="http://www.w3.org/2000/svg">
  <sodipodi:namedview
     id="namedview1"
     pagecolor="#ffffff"
     bordercolor="#000000"
     borderopacity="0.25"
     inkscape:showpageshadow="2"
     inkscape:pageopacity="0.0"
     inkscape:pagecheckerboard="0"
     inkscape:deskcolor="#d1d1d1"
     inkscape:document-units="px"
     inkscape:zoom="1.0544691"
     inkscape:cx="137.50996"
     inkscape:cy="131.81989"
     inkscape:window-width="1312"
     inkscape:window-height="449"
     inkscape:window-x="0"
     inkscape:window-y="25"
     inkscape:window-maximized="0"
     inkscape:current-layer="layer1" />
  <defs
     id="defs1" />
  <g
     inkscape:label="Layer 1"
     inkscape:groupmode="layer"
     id="layer1">
    <path
       id="estante"
       style="fill:#2b1100;stroke-width:1.20529"
       d="M 6.3551378,7.6264235 V 253.04174 292.30989 H 23.57461 v -39.26815 h 255.20357 v 39.55221 h 17.21726 v -39.55221 h 0.19179 V 7.6264235 Z M 26.442685,28.895733 H 278.96777 V 236.68188 H 26.442685 Z"
       tipo="5" />
    <path
       id="04"
       style="fill:#ff00ff;stroke-width:1.05409"
       d="M 32.191406 33.050781 L 32.191406 77.542969 L 273.7168 77.542969 L 273.7168 33.050781 L 32.191406 33.050781 z M 142.83984 44.449219 C 148.43984 44.449219 150.74414 48.128601 150.74414 55.808594 C 150.74414 63.648586 147.73537 67.201172 142.35938 67.201172 C 136.69538 67.201172 134.48633 63.520742 134.48633 55.96875 C 134.48633 48.000758 137.39985 44.449219 142.83984 44.449219 z M 161.55859 44.769531 L 167.03125 44.769531 L 167.03125 58.080078 L 169.97461 58.080078 L 169.97461 62.017578 L 167.03125 62.017578 L 167.03125 66.880859 L 162.39062 66.880859 L 162.39062 62.017578 L 153.7832 62.017578 L 152.79102 58.273438 L 161.55859 44.769531 z M 142.48633 48.513672 C 139.92633 48.513672 139.31836 50.752599 139.31836 55.808594 C 139.31836 60.896589 140.31169 63.136719 142.67969 63.136719 C 145.27168 63.136719 145.91211 60.960745 145.91211 55.96875 C 145.91211 50.944755 144.88633 48.513672 142.48633 48.513672 z M 162.58398 49.761719 C 161.91199 51.073717 161.08005 52.544673 160.24805 53.888672 L 157.6543 58.080078 L 162.39062 58.080078 L 162.39062 56.320312 C 162.39062 53.376315 162.51894 51.553717 162.71094 49.761719 L 162.58398 49.761719 z "
       tipo="6" />
    <path
       id="03"
       style="fill:#ff00ff;stroke-width:1.05409"
       d="M 32.140625 83.576172 L 32.140625 128.06836 L 273.66602 128.06836 L 273.66602 83.576172 L 32.140625 83.576172 z M 142.35156 94.650391 C 147.95156 94.650391 150.25586 98.329773 150.25586 106.00977 C 150.25586 113.84976 147.24709 117.40234 141.87109 117.40234 C 136.2071 117.40234 134 113.72191 134 106.16992 C 134 98.20193 136.91157 94.650391 142.35156 94.650391 z M 159.56836 94.650391 C 164.20835 94.650391 166.57617 96.600817 166.57617 100.63281 C 166.57617 103.19281 165.10405 104.85684 163.24805 105.46484 L 163.24805 105.59375 C 165.29604 105.78575 167.37695 107.00088 167.37695 110.29688 C 167.37695 114.93687 164.20729 117.40234 159.2793 117.40234 C 155.2153 117.40234 152.78317 115.16172 151.95117 112.76172 L 156.46484 110.71289 C 156.91284 111.76889 157.87267 113.43359 159.88867 113.43359 C 161.74467 113.43359 162.60742 112.44148 162.60742 110.52148 C 162.60742 108.88949 161.45603 107.89844 158.83203 107.89844 L 157.35938 107.89844 L 157.35938 103.92969 L 158.80078 103.92969 C 160.91278 103.92969 161.80859 103.12883 161.80859 101.04883 C 161.80859 99.44883 161.10361 98.617188 159.59961 98.617188 C 158.19161 98.617187 157.36012 99.577736 157.32812 101.17773 L 152.6875 100.76172 C 152.8155 97.369722 155.21636 94.650391 159.56836 94.650391 z M 142 98.712891 C 139.44 98.712891 138.83203 100.95377 138.83203 106.00977 C 138.83203 111.09776 139.82341 113.33789 142.19141 113.33789 C 144.7834 113.33789 145.42383 111.16192 145.42383 106.16992 C 145.42383 101.14593 144.4 98.712891 142 98.712891 z "
       tipo="6" />
    <path
       id="02"
       style="fill:#ff00ff;stroke-width:1.05409"
       d="M 31.818359 135.49219 L 31.818359 179.98242 L 273.34375 179.98242 L 273.34375 135.49219 L 31.818359 135.49219 z M 143.16797 146.06445 C 148.76796 146.06445 151.07227 149.74384 151.07227 157.42383 C 151.07227 165.26382 148.06349 168.81641 142.6875 168.81641 C 137.02351 168.81641 134.81641 165.13598 134.81641 157.58398 C 134.81641 149.61599 137.72797 146.06445 143.16797 146.06445 z M 161.18359 146.06445 C 165.40759 146.06445 167.96875 148.39918 167.96875 151.95117 C 167.96875 154.31917 167.23279 156.40049 165.2168 158.89648 C 164.4168 159.88848 163.42423 160.97616 162.24023 162.16016 C 161.44024 162.92816 160.51153 163.7278 159.51953 164.5918 L 159.51953 164.7207 C 160.83153 164.5927 163.36033 164.49609 164.73633 164.49609 L 168.25586 164.49609 L 168.25586 168.49609 L 154.56055 168.49609 L 153.72852 164.46289 C 157.18451 161.16689 159.8722 158.47994 161.4082 156.33594 C 162.4322 154.89594 162.97656 153.71105 162.97656 152.62305 C 162.97656 150.86305 162.11173 150.12695 160.92773 150.12695 C 159.45574 150.12695 158.75195 151.53627 158.75195 153.07227 L 153.85547 152.20703 C 154.17547 148.94303 156.4796 146.06445 161.18359 146.06445 z M 142.81641 150.12695 C 140.25641 150.12695 139.64844 152.36783 139.64844 157.42383 C 139.64844 162.51182 140.63981 164.75195 143.00781 164.75195 C 145.59981 164.75195 146.24023 162.57598 146.24023 157.58398 C 146.24023 152.55999 145.2164 150.12695 142.81641 150.12695 z "
       tipo="6" />
    <path
       id="01"
       style="fill:#ff00ff;stroke-width:1.05409"
       d="M 32.005859 187.76367 L 32.005859 232.25391 L 273.53125 232.25391 L 273.53125 187.76367 L 32.005859 187.76367 z M 143.62305 199.99609 C 149.22304 199.99609 151.52734 203.67548 151.52734 211.35547 C 151.52734 219.19546 148.51857 222.74805 143.14258 222.74805 C 137.47858 222.74805 135.27148 219.06762 135.27148 211.51562 C 135.27148 203.54763 138.18305 199.99609 143.62305 199.99609 z M 160.23047 200.31641 L 165.0625 200.31641 L 165.0625 222.42773 L 160.26367 222.42773 L 160.26367 212.0918 C 160.26367 210.0758 160.29388 207.7077 160.42188 205.5957 L 160.29492 205.5957 L 158.08594 207.09961 L 155.84766 208.63672 L 153.12695 204.82812 L 160.23047 200.31641 z M 143.27148 204.06055 C 140.71149 204.06055 140.10352 206.29947 140.10352 211.35547 C 140.10352 216.44346 141.09489 218.68359 143.46289 218.68359 C 146.05489 218.68359 146.69531 216.50762 146.69531 211.51562 C 146.69531 206.49163 145.67148 204.06055 143.27148 204.06055 z "
       tipo="6" />
  </g>
</svg>
